<?xml version="1.0" encoding="utf-8"?>
<!-- Uploaded to: SVG Repo, www.svgrepo.com, Generator: SVG Repo Mixer Tools -->
<svg fill="#000000" width="800px" height="800px" viewBox="0 0 32 32" version="1.1" xmlns="http://www.w3.org/2000/svg">
<title>door</title>
<path d="M30 29.25h-3.279v-27.25c-0-0.414-0.336-0.75-0.75-0.75h-19.971c-0.414 0-0.75 0.336-0.75 0.75v0 27.25h-3.25c-0.414 0-0.75 0.336-0.75 0.75s0.336 0.75 0.75 0.75v0h28c0.414 0 0.75-0.336 0.75-0.75s-0.336-0.75-0.75-0.75v0zM6.75 29.25v-26.5h18.471v26.5zM20.48 15.46c-0.146 0.135-0.238 0.326-0.24 0.54v0c0 0.001-0 0.003-0 0.005 0 0.212 0.093 0.403 0.24 0.535l0.001 0.001c0.126 0.135 0.306 0.22 0.505 0.22 0.005 0 0.010-0 0.015-0h-0.001c0.204-0.001 0.388-0.085 0.519-0.22l0-0c0.142-0.138 0.232-0.328 0.24-0.539l0-0.001c-0.012-0.212-0.102-0.4-0.24-0.54l0 0c-0.136-0.126-0.319-0.203-0.52-0.203s-0.383 0.077-0.52 0.203l0-0z"></path>
</svg>