<svg id="Group_4131" data-name="Group 4131" xmlns="http://www.w3.org/2000/svg" width="67.011" height="113.223" viewBox="0 0 67.011 113.223">
  <path id="Path_49" data-name="Path 49" d="M59.261,0H7.75A7.686,7.686,0,0,0,0,7.75V100.06a7.686,7.686,0,0,0,7.75,7.75h.684V111c0,2.963,4.559,2.963,4.559,0V107.81H54.475V111c0,2.963,4.559,2.963,4.559,0V107.81h.228a7.686,7.686,0,0,0,7.75-7.75V7.75A7.831,7.831,0,0,0,59.261,0ZM7.75,4.559H59.261A3.116,3.116,0,0,1,62.452,7.75V39.887H4.559V7.75A3.116,3.116,0,0,1,7.75,4.559Zm51.512,98.693H7.75a3.116,3.116,0,0,1-3.191-3.191V44.446H62.452V100.06a3.26,3.26,0,0,1-3.191,3.191Zm0,0"/>
  <path id="Path_50" data-name="Path 50" d="M4.6,24.447V36.755c0,2.963,4.559,2.963,4.559,0V24.447c0-2.963-4.559-2.963-4.559,0Zm0,0" transform="translate(5.885 28.432)"/>
  <path id="Path_51" data-name="Path 51" d="M9.159,22.683V10.147c0-2.963-4.559-2.963-4.559,0V22.455c0,2.963,4.559,2.963,4.559.228Zm0,0" transform="translate(5.885 10.138)"/>
</svg>
