<svg viewBox="0 0 48 48" xmlns="http://www.w3.org/2000/svg" xmlns:xlink="http://www.w3.org/1999/xlink" >
<defs>



 <path fill="#000000" id="i-439" d="M37.895,31.553l4,8l-1.789,0.895l-4-8L37.895,31.553z M23,41h2v-8.992L23,32V41z M6.105,39.553l1.789,0.895l4-8 l-1.789-0.895L6.105,39.553z M48,8v18c0,1.607-1.065,4-4,4H4c-2.935,0-4-2.393-4-4V8H48z M42,24H6v4h36V24z M46,10H2v16 c0.008,0.463,0.174,2,2,2v-6h40v6c1.903,0,2-1.666,2-2V10z M41,17c1.105,0,2-0.896,2-2s-0.895-2-2-2s-2,0.896-2,2S39.895,17,41,17z M40.15,25H7.85v2H40.15V25z"/> 
</defs>

<use x="0" y="0" xlink:href="#i-439"/>

</svg>